{
 "cells": [
  {
   "cell_type": "markdown",
   "metadata": {},
   "source": [
    "# ESRGAN"
   ]
  },
  {
   "cell_type": "code",
   "execution_count": 1,
   "metadata": {},
   "outputs": [
    {
     "name": "stdout",
     "output_type": "stream",
     "text": [
      "name, driver_version, memory.total [MiB]\n",
      "Tesla V100-SXM2-16GB, 440.33.01, 16160 MiB\n"
     ]
    }
   ],
   "source": [
    "!nvidia-smi --query-gpu=gpu_name,driver_version,memory.total --format=csv"
   ]
  },
  {
   "cell_type": "code",
   "execution_count": 2,
   "metadata": {},
   "outputs": [
    {
     "name": "stdout",
     "output_type": "stream",
     "text": [
      "Requirement already up-to-date: pip in ./anaconda3/lib/python3.7/site-packages (20.2.3)\n"
     ]
    }
   ],
   "source": [
    "!pip install --upgrade pip"
   ]
  },
  {
   "cell_type": "code",
   "execution_count": 3,
   "metadata": {},
   "outputs": [
    {
     "name": "stdout",
     "output_type": "stream",
     "text": [
      "Requirement already satisfied: numpy in ./anaconda3/lib/python3.7/site-packages (1.18.1)\n",
      "Requirement already satisfied: opencv-python in ./anaconda3/lib/python3.7/site-packages (4.4.0.44)\n",
      "Requirement already satisfied: lmdb in ./anaconda3/lib/python3.7/site-packages (1.0.0)\n",
      "Requirement already satisfied: pyyaml in ./anaconda3/lib/python3.7/site-packages (5.3)\n",
      "Requirement already satisfied: pickle5 in ./anaconda3/lib/python3.7/site-packages (0.0.11)\n",
      "Requirement already satisfied: matplotlib in ./anaconda3/lib/python3.7/site-packages (3.1.3)\n",
      "Requirement already satisfied: seaborn in ./anaconda3/lib/python3.7/site-packages (0.10.0)\n",
      "Requirement already satisfied: tqdm in ./anaconda3/lib/python3.7/site-packages (4.42.1)\n",
      "Requirement already satisfied: pyparsing!=2.0.4,!=2.1.2,!=2.1.6,>=2.0.1 in ./anaconda3/lib/python3.7/site-packages (from matplotlib) (2.4.6)\n",
      "Requirement already satisfied: python-dateutil>=2.1 in ./anaconda3/lib/python3.7/site-packages (from matplotlib) (2.8.1)\n",
      "Requirement already satisfied: cycler>=0.10 in ./anaconda3/lib/python3.7/site-packages (from matplotlib) (0.10.0)\n",
      "Requirement already satisfied: kiwisolver>=1.0.1 in ./anaconda3/lib/python3.7/site-packages (from matplotlib) (1.1.0)\n",
      "Requirement already satisfied: scipy>=1.0.1 in ./anaconda3/lib/python3.7/site-packages (from seaborn) (1.4.1)\n",
      "Requirement already satisfied: pandas>=0.22.0 in ./anaconda3/lib/python3.7/site-packages (from seaborn) (1.0.1)\n",
      "Requirement already satisfied: six>=1.5 in ./anaconda3/lib/python3.7/site-packages (from python-dateutil>=2.1->matplotlib) (1.14.0)\n",
      "Requirement already satisfied: setuptools in ./anaconda3/lib/python3.7/site-packages (from kiwisolver>=1.0.1->matplotlib) (45.2.0.post20200210)\n",
      "Requirement already satisfied: pytz>=2017.2 in ./anaconda3/lib/python3.7/site-packages (from pandas>=0.22.0->seaborn) (2019.3)\n"
     ]
    }
   ],
   "source": [
    "!pip install numpy opencv-python lmdb pyyaml pickle5 matplotlib seaborn tqdm"
   ]
  },
  {
   "cell_type": "code",
   "execution_count": null,
   "metadata": {},
   "outputs": [],
   "source": [
    "apt-get update && apt-get install libgl1-mesa-glx ffmpeg"
   ]
  },
  {
   "cell_type": "code",
   "execution_count": 5,
   "metadata": {},
   "outputs": [
    {
     "name": "stdout",
     "output_type": "stream",
     "text": [
      "Cloning into 'ESRGAN'...\n",
      "remote: Enumerating objects: 216, done.\u001b[K\n",
      "remote: Total 216 (delta 0), reused 0 (delta 0), pack-reused 216\u001b[K\n",
      "Receiving objects: 100% (216/216), 24.86 MiB | 15.16 MiB/s, done.\n",
      "Resolving deltas: 100% (80/80), done.\n"
     ]
    }
   ],
   "source": [
    "!git clone https://github.com/xinntao/ESRGAN"
   ]
  },
  {
   "cell_type": "markdown",
   "metadata": {},
   "source": [
    "# Here"
   ]
  },
  {
   "cell_type": "code",
   "execution_count": 16,
   "metadata": {},
   "outputs": [],
   "source": [
    "################# Required Configurations ############################\n",
    "\n",
    "INPUT_FILEPATH = \"brazo.mp4\" #param{type:\"string\"}\n",
    "\n",
    "OUTPUT_FILEPATH = \"brazo4K.mp4\" #param{type:\"string\"}\n",
    "\n",
    "################# Optional configurations ############################\n",
    "\n",
    "INPUTFRAMES_DIRPATH = 'ESRGAN/LR' #@param{type:\"string\"}\n",
    "\n",
    "OUTPUTFRAMES_DIRPATH = 'ESRGAN/results' #@param{type:\"string\"}"
   ]
  },
  {
   "cell_type": "code",
   "execution_count": 9,
   "metadata": {},
   "outputs": [],
   "source": [
    "rm -R '{INPUTFRAMES_DIRPATH}' && mkdir '{INPUTFRAMES_DIRPATH}'"
   ]
  },
  {
   "cell_type": "code",
   "execution_count": 10,
   "metadata": {},
   "outputs": [],
   "source": [
    "rm -R '{OUTPUTFRAMES_DIRPATH}' && mkdir '{OUTPUTFRAMES_DIRPATH}'"
   ]
  },
  {
   "cell_type": "code",
   "execution_count": 11,
   "metadata": {},
   "outputs": [
    {
     "name": "stdout",
     "output_type": "stream",
     "text": [
      "ffmpeg version 3.4.8-0ubuntu0.2 Copyright (c) 2000-2020 the FFmpeg developers\n",
      "  built with gcc 7 (Ubuntu 7.5.0-3ubuntu1~18.04)\n",
      "  configuration: --prefix=/usr --extra-version=0ubuntu0.2 --toolchain=hardened --libdir=/usr/lib/x86_64-linux-gnu --incdir=/usr/include/x86_64-linux-gnu --enable-gpl --disable-stripping --enable-avresample --enable-avisynth --enable-gnutls --enable-ladspa --enable-libass --enable-libbluray --enable-libbs2b --enable-libcaca --enable-libcdio --enable-libflite --enable-libfontconfig --enable-libfreetype --enable-libfribidi --enable-libgme --enable-libgsm --enable-libmp3lame --enable-libmysofa --enable-libopenjpeg --enable-libopenmpt --enable-libopus --enable-libpulse --enable-librubberband --enable-librsvg --enable-libshine --enable-libsnappy --enable-libsoxr --enable-libspeex --enable-libssh --enable-libtheora --enable-libtwolame --enable-libvorbis --enable-libvpx --enable-libwavpack --enable-libwebp --enable-libx265 --enable-libxml2 --enable-libxvid --enable-libzmq --enable-libzvbi --enable-omx --enable-openal --enable-opengl --enable-sdl2 --enable-libdc1394 --enable-libdrm --enable-libiec61883 --enable-chromaprint --enable-frei0r --enable-libopencv --enable-libx264 --enable-shared\n",
      "  libavutil      55. 78.100 / 55. 78.100\n",
      "  libavcodec     57.107.100 / 57.107.100\n",
      "  libavformat    57. 83.100 / 57. 83.100\n",
      "  libavdevice    57. 10.100 / 57. 10.100\n",
      "  libavfilter     6.107.100 /  6.107.100\n",
      "  libavresample   3.  7.  0 /  3.  7.  0\n",
      "  libswscale      4.  8.100 /  4.  8.100\n",
      "  libswresample   2.  9.100 /  2.  9.100\n",
      "  libpostproc    54.  7.100 / 54.  7.100\n",
      "Input #0, mov,mp4,m4a,3gp,3g2,mj2, from 'examplebrazo.mp4':\n",
      "  Metadata:\n",
      "    major_brand     : mp42\n",
      "    minor_version   : 1\n",
      "    compatible_brands: isommp41mp42\n",
      "    creation_time   : 2020-10-12T02:47:05.000000Z\n",
      "  Duration: 00:00:08.85, start: -0.002426, bitrate: 629 kb/s\n",
      "    Stream #0:0(und): Video: h264 (Main) (avc1 / 0x31637661), yuv420p(tv, bt709), 720x576 [SAR 82:75 DAR 41:30], 419 kb/s, 22.48 fps, 23.98 tbr, 90k tbn, 47.95 tbc (default)\n",
      "    Metadata:\n",
      "      creation_time   : 2020-10-12T02:47:05.000000Z\n",
      "      handler_name    : Core Media Video\n",
      "    Stream #0:1(eng): Audio: aac (LC) (mp4a / 0x6134706D), 44100 Hz, stereo, fltp, 131 kb/s (default)\n",
      "    Metadata:\n",
      "      creation_time   : 2020-10-12T02:47:05.000000Z\n",
      "      handler_name    : Core Media Audio\n",
      "Stream mapping:\n",
      "  Stream #0:0 -> #0:0 (h264 (native) -> png (native))\n",
      "Press [q] to stop, [?] for help\n",
      "Output #0, image2, to 'ESRGAN/LR/%d.png':\n",
      "  Metadata:\n",
      "    major_brand     : mp42\n",
      "    minor_version   : 1\n",
      "    compatible_brands: isommp41mp42\n",
      "    encoder         : Lavf57.83.100\n",
      "    Stream #0:0(und): Video: png, rgb24, 720x576 [SAR 82:75 DAR 41:30], q=2-31, 200 kb/s, 23.98 fps, 23.98 tbn, 23.98 tbc (default)\n",
      "    Metadata:\n",
      "      creation_time   : 2020-10-12T02:47:05.000000Z\n",
      "      handler_name    : Core Media Video\n",
      "      encoder         : Lavc57.107.100 png\n",
      "frame=  212 fps= 88 q=-0.0 Lsize=N/A time=00:00:08.84 bitrate=N/A speed=3.69x    \n",
      "video:57682kB audio:0kB subtitle:0kB other streams:0kB global headers:0kB muxing overhead: unknown\n"
     ]
    }
   ],
   "source": [
    "# ffmpeg extract - Generating individual frame PNGs from the source file.\n",
    "filename = os.path.basename(INPUT_FILEPATH)\n",
    "! ffmpeg -i '{filename}' '{INPUTFRAMES_DIRPATH}/%d.png'"
   ]
  },
  {
   "cell_type": "code",
   "execution_count": 12,
   "metadata": {},
   "outputs": [
    {
     "name": "stdout",
     "output_type": "stream",
     "text": [
      "Model path ESRGAN/models/RRDB_PSNR_x4.pth. \n",
      "Testing...\n",
      "  6%|██▍                                       | 12/212 [00:40<11:17,  3.39s/it]^C\n"
     ]
    }
   ],
   "source": [
    "!python ESRGAN/test.py"
   ]
  },
  {
   "cell_type": "code",
   "execution_count": 23,
   "metadata": {},
   "outputs": [
    {
     "name": "stdout",
     "output_type": "stream",
     "text": [
      "/notebooks/ESRGAN/results\n",
      "ffmpeg version 3.4.8-0ubuntu0.2 Copyright (c) 2000-2020 the FFmpeg developers\n",
      "  built with gcc 7 (Ubuntu 7.5.0-3ubuntu1~18.04)\n",
      "  configuration: --prefix=/usr --extra-version=0ubuntu0.2 --toolchain=hardened --libdir=/usr/lib/x86_64-linux-gnu --incdir=/usr/include/x86_64-linux-gnu --enable-gpl --disable-stripping --enable-avresample --enable-avisynth --enable-gnutls --enable-ladspa --enable-libass --enable-libbluray --enable-libbs2b --enable-libcaca --enable-libcdio --enable-libflite --enable-libfontconfig --enable-libfreetype --enable-libfribidi --enable-libgme --enable-libgsm --enable-libmp3lame --enable-libmysofa --enable-libopenjpeg --enable-libopenmpt --enable-libopus --enable-libpulse --enable-librubberband --enable-librsvg --enable-libshine --enable-libsnappy --enable-libsoxr --enable-libspeex --enable-libssh --enable-libtheora --enable-libtwolame --enable-libvorbis --enable-libvpx --enable-libwavpack --enable-libwebp --enable-libx265 --enable-libxml2 --enable-libxvid --enable-libzmq --enable-libzvbi --enable-omx --enable-openal --enable-opengl --enable-sdl2 --enable-libdc1394 --enable-libdrm --enable-libiec61883 --enable-chromaprint --enable-frei0r --enable-libopencv --enable-libx264 --enable-shared\n",
      "  libavutil      55. 78.100 / 55. 78.100\n",
      "  libavcodec     57.107.100 / 57.107.100\n",
      "  libavformat    57. 83.100 / 57. 83.100\n",
      "  libavdevice    57. 10.100 / 57. 10.100\n",
      "  libavfilter     6.107.100 /  6.107.100\n",
      "  libavresample   3.  7.  0 /  3.  7.  0\n",
      "  libswscale      4.  8.100 /  4.  8.100\n",
      "  libswresample   2.  9.100 /  2.  9.100\n",
      "  libpostproc    54.  7.100 / 54.  7.100\n",
      "Input #0, mov,mp4,m4a,3gp,3g2,mj2, from '../../examplebrazo.mp4':\n",
      "  Metadata:\n",
      "    major_brand     : mp42\n",
      "    minor_version   : 1\n",
      "    compatible_brands: isommp41mp42\n",
      "    creation_time   : 2020-10-12T02:47:05.000000Z\n",
      "  Duration: 00:00:08.85, start: -0.002426, bitrate: 629 kb/s\n",
      "    Stream #0:0(und): Video: h264 (Main) (avc1 / 0x31637661), yuv420p(tv, bt709), 720x576 [SAR 82:75 DAR 41:30], 419 kb/s, 22.48 fps, 23.98 tbr, 90k tbn, 47.95 tbc (default)\n",
      "    Metadata:\n",
      "      creation_time   : 2020-10-12T02:47:05.000000Z\n",
      "      handler_name    : Core Media Video\n",
      "    Stream #0:1(eng): Audio: aac (LC) (mp4a / 0x6134706D), 44100 Hz, stereo, fltp, 131 kb/s (default)\n",
      "    Metadata:\n",
      "      creation_time   : 2020-10-12T02:47:05.000000Z\n",
      "      handler_name    : Core Media Audio\n",
      "Output #0, adts, to 'temp_outputaudio.aac':\n",
      "  Metadata:\n",
      "    major_brand     : mp42\n",
      "    minor_version   : 1\n",
      "    compatible_brands: isommp41mp42\n",
      "    encoder         : Lavf57.83.100\n",
      "    Stream #0:0(eng): Audio: aac (LC) (mp4a / 0x6134706D), 44100 Hz, stereo, fltp, 131 kb/s (default)\n",
      "    Metadata:\n",
      "      creation_time   : 2020-10-12T02:47:05.000000Z\n",
      "      handler_name    : Core Media Audio\n",
      "Stream mapping:\n",
      "  Stream #0:1 -> #0:0 (copy)\n",
      "Press [q] to stop, [?] for help\n",
      "size=     145kB time=00:00:08.84 bitrate= 134.6kbits/s speed=5.03e+03x    \n",
      "video:0kB audio:143kB subtitle:0kB other streams:0kB global headers:0kB muxing overhead: 1.834869%\n",
      "ffmpeg version 3.4.8-0ubuntu0.2 Copyright (c) 2000-2020 the FFmpeg developers\n",
      "  built with gcc 7 (Ubuntu 7.5.0-3ubuntu1~18.04)\n",
      "  configuration: --prefix=/usr --extra-version=0ubuntu0.2 --toolchain=hardened --libdir=/usr/lib/x86_64-linux-gnu --incdir=/usr/include/x86_64-linux-gnu --enable-gpl --disable-stripping --enable-avresample --enable-avisynth --enable-gnutls --enable-ladspa --enable-libass --enable-libbluray --enable-libbs2b --enable-libcaca --enable-libcdio --enable-libflite --enable-libfontconfig --enable-libfreetype --enable-libfribidi --enable-libgme --enable-libgsm --enable-libmp3lame --enable-libmysofa --enable-libopenjpeg --enable-libopenmpt --enable-libopus --enable-libpulse --enable-librubberband --enable-librsvg --enable-libshine --enable-libsnappy --enable-libsoxr --enable-libspeex --enable-libssh --enable-libtheora --enable-libtwolame --enable-libvorbis --enable-libvpx --enable-libwavpack --enable-libwebp --enable-libx265 --enable-libxml2 --enable-libxvid --enable-libzmq --enable-libzvbi --enable-omx --enable-openal --enable-opengl --enable-sdl2 --enable-libdc1394 --enable-libdrm --enable-libiec61883 --enable-chromaprint --enable-frei0r --enable-libopencv --enable-libx264 --enable-shared\n",
      "  libavutil      55. 78.100 / 55. 78.100\n",
      "  libavcodec     57.107.100 / 57.107.100\n",
      "  libavformat    57. 83.100 / 57. 83.100\n",
      "  libavdevice    57. 10.100 / 57. 10.100\n",
      "  libavfilter     6.107.100 /  6.107.100\n",
      "  libavresample   3.  7.  0 /  3.  7.  0\n",
      "  libswscale      4.  8.100 /  4.  8.100\n",
      "  libswresample   2.  9.100 /  2.  9.100\n",
      "  libpostproc    54.  7.100 / 54.  7.100\n",
      "Input #0, image2, from '*.png':\n",
      "  Duration: 00:00:00.54, start: 0.000000, bitrate: N/A\n",
      "    Stream #0:0: Video: png, rgb24(pc), 2880x2304, 24 tbr, 24 tbn, 24 tbc\n",
      "\u001b[0;35m[aac @ 0x557408842f40] \u001b[0m\u001b[0;33mEstimating duration from bitrate, this may be inaccurate\n",
      "\u001b[0mInput #1, aac, from 'temp_outputaudio.aac':\n",
      "  Duration: 00:00:08.49, bitrate: 140 kb/s\n",
      "    Stream #1:0: Audio: aac (LC), 44100 Hz, stereo, fltp, 140 kb/s\n",
      "Stream mapping:\n",
      "  Stream #0:0 -> #0:0 (copy)\n",
      "  Stream #1:0 -> #0:1 (aac (native) -> aac (native))\n",
      "Press [q] to stop, [?] for help\n",
      "Output #0, mp4, to '../../output.mp4':\n",
      "  Metadata:\n",
      "    encoder         : Lavf57.83.100\n",
      "    Stream #0:0: Video: png (mp4v / 0x7634706D), rgb24(pc), 2880x2304, q=2-31, 24 tbr, 12288 tbn, 24 tbc\n",
      "    Stream #0:1: Audio: aac (LC) (mp4a / 0x6134706D), 44100 Hz, stereo, fltp, 256 kb/s\n",
      "    Metadata:\n",
      "      encoder         : Lavc57.107.100 aac\n",
      "\u001b[0;35m[image2 @ 0x55740883dac0] \u001b[0m\u001b[0;33mThread message queue blocking; consider raising the thread_queue_size option (current value: 8)\n",
      "\u001b[0mframe=   13 fps=0.0 q=-1.0 Lsize=   71817kB time=00:00:00.53 bitrate=1101605.1kbits/s speed=4.24x    \n",
      "video:71803kB audio:12kB subtitle:0kB other streams:0kB global headers:0kB muxing overhead: 0.002244%\n",
      "\u001b[1;36m[aac @ 0x557408849bc0] \u001b[0mQavg: 65149.895\n",
      "/notebooks\n"
     ]
    }
   ],
   "source": [
    "%cd {OUTPUTFRAMES_DIRPATH}\n",
    "! ffmpeg -i '../../{INPUT_FILEPATH}' -acodec copy 'temp_outputaudio.aac'\n",
    "! ffmpeg -y -r {TARGET_FPS} -f image2 -pattern_type glob -i '*.png' -i 'temp_outputaudio.aac' -shortest -c:v copy -c:a aac -b:a 256k  '../../{OUTPUT_FILEPATH}'\n",
    "! rm 'temp_outputaudio.aac'\n",
    "%cd ../.."
   ]
  },
  {
   "cell_type": "code",
   "execution_count": null,
   "metadata": {},
   "outputs": [],
   "source": []
  }
 ],
 "metadata": {
  "kernelspec": {
   "display_name": "Python 3",
   "language": "python",
   "name": "python3"
  },
  "language_info": {
   "codemirror_mode": {
    "name": "ipython",
    "version": 3
   },
   "file_extension": ".py",
   "mimetype": "text/x-python",
   "name": "python",
   "nbconvert_exporter": "python",
   "pygments_lexer": "ipython3",
   "version": "3.7.6"
  }
 },
 "nbformat": 4,
 "nbformat_minor": 4
}
